<svg xmlns="http://www.w3.org/2000/svg" width="30.153" height="8.727" viewBox="0 0 30.153 8.727">
  <path id="Pfad_1027" data-name="Pfad 1027" d="M.759,0V-8.727H4.253a3.967,3.967,0,0,1,1.607.286,2.139,2.139,0,0,1,.967.79A2.1,2.1,0,0,1,7.151-6.49a1.887,1.887,0,0,1-.2.9,1.749,1.749,0,0,1-.56.631,2.3,2.3,0,0,1-.812.347v.085a1.967,1.967,0,0,1,.935.281,2,2,0,0,1,.71.727,2.162,2.162,0,0,1,.273,1.11,2.269,2.269,0,0,1-.343,1.238,2.334,2.334,0,0,1-1.012.859A3.855,3.855,0,0,1,4.487,0ZM2.6-1.509h1.5a1.74,1.74,0,0,0,1.125-.3.979.979,0,0,0,.354-.79,1.173,1.173,0,0,0-.175-.639,1.189,1.189,0,0,0-.5-.435,1.722,1.722,0,0,0-.765-.158H2.6Zm0-3.567H3.972a1.62,1.62,0,0,0,.675-.134,1.123,1.123,0,0,0,.469-.381,1.008,1.008,0,0,0,.173-.592.96.96,0,0,0-.335-.763,1.4,1.4,0,0,0-.948-.29H2.6ZM8.689,0V-8.727H14.57v1.521H10.534v2.08h3.733v1.521H10.534v2.084h4.053V0Zm7.018-7.206V-8.727h7.168v1.521H20.2V0H18.379V-7.206ZM24.49,0H22.513l3.013-8.727H27.9L30.912,0H28.935L26.749-6.733H26.68Zm-.124-3.43h4.67v1.44h-4.67Z" transform="translate(-0.759 8.727)" fill="#191c1c"/>
</svg>
