<?xml version="1.0" encoding="UTF-8" standalone="no"?>
<svg
   xmlns:dc="http://purl.org/dc/elements/1.1/"
   xmlns:cc="http://creativecommons.org/ns#"
   xmlns:rdf="http://www.w3.org/1999/02/22-rdf-syntax-ns#"
   xmlns:svg="http://www.w3.org/2000/svg"
   xmlns="http://www.w3.org/2000/svg"
   xmlns:sodipodi="http://sodipodi.sourceforge.net/DTD/sodipodi-0.dtd"
   xmlns:inkscape="http://www.inkscape.org/namespaces/inkscape"
   id="Ebene_1"
   data-name="Ebene 1"
   version="1.1"
   viewBox="0 0 56 69.2"
   sodipodi:docname="perspectivia-logo.svg"
   width="56"
   height="69.199997"
   inkscape:version="0.92.4 (5da689c313, 2019-01-14)">
  <metadata
     id="metadata937">
    <rdf:RDF>
      <cc:Work
         rdf:about="">
        <dc:format>image/svg+xml</dc:format>
        <dc:type
           rdf:resource="http://purl.org/dc/dcmitype/StillImage" />
        <dc:title></dc:title>
      </cc:Work>
    </rdf:RDF>
  </metadata>
  <sodipodi:namedview
     pagecolor="#ffffff"
     bordercolor="#666666"
     borderopacity="1"
     objecttolerance="10"
     gridtolerance="10"
     guidetolerance="10"
     inkscape:pageopacity="0"
     inkscape:pageshadow="2"
     inkscape:window-width="1920"
     inkscape:window-height="1017"
     id="namedview935"
     showgrid="false"
     fit-margin-top="0"
     fit-margin-left="0"
     fit-margin-right="0"
     fit-margin-bottom="0"
     inkscape:zoom="3.1045752"
     inkscape:cx="229.5"
     inkscape:cy="34.600002"
     inkscape:window-x="-8"
     inkscape:window-y="1061"
     inkscape:window-maximized="1"
     inkscape:current-layer="Ebene_1" />
  <defs
     id="defs879">
    <style
       id="style877">
      .cls-1 {
        fill: #ef7f02;
      }

      .cls-1, .cls-2, .cls-3 {
        stroke-width: 0px;
      }

      .cls-2 {
        fill: #ef7f01;
      }

      .cls-3 {
        fill: #191c1c;
      }

      .cls-4 {
        isolation: isolate;
      }
    </style>
  </defs>
  <g
     data-name="Gruppe 173"
     id="Gruppe_173">
    <g
       data-name="Gruppe 1"
       id="Gruppe_1">
      <path
         style="fill:#ef7f01;stroke-width:0px"
         inkscape:connector-curvature="0"
         d="M 47.7,0 H 8.4 v 60.8 c 0,4.6 3.8,8.4 8.4,8.4 H 27.2 V 12 h 4.5 v 3.7 C 34.3,12.8 38.1,11.2 42,11.4 48,12 52.1,16.7 52.2,26.7 52.3,37.3 47.9,43.3 41.1,43.9 37.5,44.1 34,42.6 31.7,39.7 V 69.2 H 56 V 8.3 C 56,3.7 52.3,0 47.7,0 Z"
         class="cls-2"
         data-name="Pfad 1"
         id="Pfad_1" />
      <path
         style="fill:#ef7f01;stroke-width:0px"
         inkscape:connector-curvature="0"
         d="m 40.6,40 c 5.1,0 7.1,-5.2 7.3,-11.8 0.2,-7.7 -2.3,-12.1 -6.9,-12.8 -3.8,-0.6 -7.6,2.2 -9.3,4.4 v 15.7 c 3,4 6.4,4.6 8.8,4.5 z"
         class="cls-2"
         data-name="Pfad 2"
         id="Pfad_2" />
    </g>
    <rect
       style="fill:#ef7f01;stroke-width:0px"
       y="0"
       x="0"
       height="69.199997"
       width="4.5"
       class="cls-2"
       data-name="Rechteck 1"
       id="Rechteck_1" />
  </g>
</svg>
