<svg xmlns="http://www.w3.org/2000/svg" width="484.264" height="337.615" viewBox="0 0 484.264 337.615">
  <g id="PatternStrichpunktGrossKreisViertel" transform="translate(-107.009)">
    <g id="Gruppe_171880" data-name="Gruppe 171880" transform="translate(107.009)">
      <rect id="Rechteck_157037" data-name="Rechteck 157037" width="26.142" height="8.725" transform="matrix(0.808, -0.589, 0.589, 0.808, 77.092, 168.557)" fill="#96bee6"/>
      <rect id="Rechteck_157038" data-name="Rechteck 157038" width="9.187" height="9.187" transform="translate(83.333 122.97) rotate(-81.084)" fill="#96bee6"/>
      <rect id="Rechteck_157039" data-name="Rechteck 157039" width="9.187" height="9.187" transform="translate(74.304 153.347) rotate(-81.084)" fill="#96bee6"/>
      <rect id="Rechteck_157040" data-name="Rechteck 157040" width="9.187" height="9.187" transform="translate(42.324 153.051) rotate(-81.064)" fill="#96bee6"/>
      <rect id="Rechteck_157041" data-name="Rechteck 157041" width="9.187" height="9.188" transform="translate(64.468 183.255) rotate(-81.057)" fill="#96bee6"/>
      <rect id="Rechteck_157042" data-name="Rechteck 157042" width="26.141" height="8.725" transform="translate(45.918 168.728) rotate(-36.011)" fill="#96bee6"/>
      <rect id="Rechteck_157043" data-name="Rechteck 157043" width="26.141" height="8.725" transform="translate(280.63 228.908) rotate(-36.091)" fill="#96bee6"/>
      <rect id="Rechteck_157044" data-name="Rechteck 157044" width="9.187" height="9.187" transform="translate(31.253 94.587) rotate(-81.084)" fill="#96bee6"/>
      <path id="Pfad_101156" data-name="Pfad 101156" d="M27.833,389.938,22.7,382.884,12.382,390.4q-3.123,7.256-5.573,14.85Z" transform="translate(1.295 -288.303)" fill="#96bee6"/>
      <rect id="Rechteck_157045" data-name="Rechteck 157045" width="26.14" height="8.725" transform="translate(65.14 108.937) rotate(-36.091)" fill="#96bee6"/>
      <path id="Pfad_101157" data-name="Pfad 101157" d="M14.324,482.746l-7.878,5.739q1.367,4.368,2.968,8.628L19.461,489.8Z" transform="translate(1.224 -269.21)" fill="#96bee6"/>
      <rect id="Rechteck_157046" data-name="Rechteck 157046" width="9.188" height="9.187" transform="matrix(0.155, -0.988, 0.988, 0.155, 52.52, 123.634)" fill="#96bee6"/>
      <rect id="Rechteck_157047" data-name="Rechteck 157047" width="9.187" height="9.187" transform="translate(62.354 94.263) rotate(-81.084)" fill="#96bee6"/>
      <rect id="Rechteck_157048" data-name="Rechteck 157048" width="26.141" height="8.725" transform="translate(33.969 109.649) rotate(-36.068)" fill="#96bee6"/>
      <rect id="Rechteck_157049" data-name="Rechteck 157049" width="9.187" height="9.188" transform="translate(21.343 124.345) rotate(-81.057)" fill="#96bee6"/>
      <rect id="Rechteck_157050" data-name="Rechteck 157050" width="26.142" height="8.725" transform="translate(86.928 138.65) rotate(-36.062)" fill="#96bee6"/>
      <rect id="Rechteck_157051" data-name="Rechteck 157051" width="9.187" height="9.187" transform="translate(11.503 153.715) rotate(-81.084)" fill="#96bee6"/>
      <rect id="Rechteck_157052" data-name="Rechteck 157052" width="26.142" height="8.725" transform="translate(24.128 139.019) rotate(-36.091)" fill="#96bee6"/>
      <rect id="Rechteck_157053" data-name="Rechteck 157053" width="9.187" height="9.187" transform="translate(115.318 123.265) rotate(-81.084)" fill="#96bee6"/>
      <rect id="Rechteck_157054" data-name="Rechteck 157054" width="9.187" height="9.187" transform="translate(105.482 153.174) rotate(-81.084)" fill="#96bee6"/>
      <path id="Pfad_101158" data-name="Pfad 101158" d="M3.819,415.137q-1.383,6.157-2.312,12.473l17.432-12.7L13.8,407.861Z" transform="translate(0.281 -283.526)" fill="#96bee6"/>
      <path id="Pfad_101159" data-name="Pfad 101159" d="M4.26,432.534.438,435.316q-.4,5.505-.432,11.107l9.389-6.838Z" transform="translate(-0.006 -278.81)" fill="#96bee6"/>
      <rect id="Rechteck_157055" data-name="Rechteck 157055" width="26.142" height="8.725" transform="translate(13.931 168.436) rotate(-36.091)" fill="#96bee6"/>
      <rect id="Rechteck_157056" data-name="Rechteck 157056" width="26.14" height="8.725" transform="matrix(0.808, -0.589, 0.589, 0.808, 4.913, 198.825)" fill="#96bee6"/>
      <rect id="Rechteck_157057" data-name="Rechteck 157057" width="9.187" height="9.188" transform="translate(1.306 183.134) rotate(-81.065)" fill="#96bee6"/>
      <rect id="Rechteck_157058" data-name="Rechteck 157058" width="9.187" height="9.187" transform="translate(33.294 183.429) rotate(-81.084)" fill="#96bee6"/>
      <rect id="Rechteck_157059" data-name="Rechteck 157059" width="9.187" height="9.187" transform="translate(254.888 183.025) rotate(-81.084)" fill="#96bee6"/>
      <rect id="Rechteck_157060" data-name="Rechteck 157060" width="26.141" height="8.725" transform="translate(194.712 198.686) rotate(-36.091)" fill="#96bee6"/>
      <rect id="Rechteck_157061" data-name="Rechteck 157061" width="26.141" height="8.725" transform="translate(216.854 228.879) rotate(-36.091)" fill="#96bee6"/>
      <rect id="Rechteck_157062" data-name="Rechteck 157062" width="26.142" height="8.724" transform="translate(153.254 229.094) rotate(-36.091)" fill="#96bee6"/>
      <rect id="Rechteck_157063" data-name="Rechteck 157063" width="9.187" height="9.187" transform="translate(23.46 213.337) rotate(-81.084)" fill="#96bee6"/>
      <rect id="Rechteck_157064" data-name="Rechteck 157064" width="9.187" height="9.187" transform="translate(171.8 243.606) rotate(-81.084)" fill="#96bee6"/>
      <rect id="Rechteck_157065" data-name="Rechteck 157065" width="9.187" height="9.187" transform="translate(181.643 213.711) rotate(-81.064)" fill="#96bee6"/>
      <rect id="Rechteck_157066" data-name="Rechteck 157066" width="26.141" height="8.725" transform="translate(184.422 228.908) rotate(-36.062)" fill="#96bee6"/>
      <rect id="Rechteck_157067" data-name="Rechteck 157067" width="26.142" height="8.724" transform="translate(258.482 198.701) rotate(-36.091)" fill="#96bee6"/>
      <rect id="Rechteck_157068" data-name="Rechteck 157068" width="9.187" height="9.188" transform="translate(277.034 213.228) rotate(-81.065)" fill="#96bee6"/>
      <rect id="Rechteck_157069" data-name="Rechteck 157069" width="9.187" height="9.188" transform="translate(124.791 92.561) rotate(-81.057)" fill="#96bee6"/>
      <rect id="Rechteck_157070" data-name="Rechteck 157070" width="9.187" height="9.187" transform="translate(245.242 213.493) rotate(-81.084)" fill="#96bee6"/>
      <rect id="Rechteck_157071" data-name="Rechteck 157071" width="26.142" height="8.725" transform="translate(225.88 198.502) rotate(-36.068)" fill="#96bee6"/>
      <rect id="Rechteck_157072" data-name="Rechteck 157072" width="9.187" height="9.188" transform="translate(213.258 213.198) rotate(-81.064)" fill="#96bee6"/>
      <rect id="Rechteck_157073" data-name="Rechteck 157073" width="26.142" height="8.725" transform="translate(58.106 228.673) rotate(-36.011)" fill="#96bee6"/>
      <rect id="Rechteck_157074" data-name="Rechteck 157074" width="9.187" height="9.188" transform="translate(86.496 213.293) rotate(-81.084)" fill="#96bee6"/>
      <rect id="Rechteck_157075" data-name="Rechteck 157075" width="26.142" height="8.725" transform="translate(68.065 198.937) rotate(-36.066)" fill="#96bee6"/>
      <rect id="Rechteck_157076" data-name="Rechteck 157076" width="9.187" height="9.187" transform="translate(55.447 213.632) rotate(-81.084)" fill="#96bee6"/>
      <rect id="Rechteck_157077" data-name="Rechteck 157077" width="26.142" height="8.725" transform="translate(36.084 198.641) rotate(-36.091)" fill="#96bee6"/>
      <rect id="Rechteck_157078" data-name="Rechteck 157078" width="26.141" height="8.725" transform="translate(27.064 229.029) rotate(-36.091)" fill="#96bee6"/>
      <rect id="Rechteck_157079" data-name="Rechteck 157079" width="9.187" height="9.188" transform="translate(140.631 243.793) rotate(-81.065)" fill="#96bee6"/>
      <rect id="Rechteck_157080" data-name="Rechteck 157080" width="26.141" height="8.725" transform="translate(121.269 228.798) rotate(-36.06)" fill="#96bee6"/>
      <rect id="Rechteck_157081" data-name="Rechteck 157081" width="9.187" height="9.187" transform="translate(149.658 213.415) rotate(-81.064)" fill="#96bee6"/>
      <rect id="Rechteck_157082" data-name="Rechteck 157082" width="9.187" height="9.187" transform="matrix(0.155, -0.988, 0.988, 0.155, 118.48, 213.587)" fill="#96bee6"/>
      <rect id="Rechteck_157083" data-name="Rechteck 157083" width="26.142" height="8.725" transform="translate(99.119 198.593) rotate(-36.091)" fill="#96bee6"/>
      <rect id="Rechteck_157084" data-name="Rechteck 157084" width="9.187" height="9.187" transform="translate(96.454 183.551) rotate(-81.064)" fill="#96bee6"/>
      <rect id="Rechteck_157085" data-name="Rechteck 157085" width="26.141" height="8.725" transform="translate(54.944 138.355) rotate(-36.091)" fill="#96bee6"/>
      <rect id="Rechteck_157086" data-name="Rechteck 157086" width="26.142" height="8.725" transform="translate(289.769 198.683) rotate(-36.011)" fill="#96bee6"/>
      <rect id="Rechteck_157087" data-name="Rechteck 157087" width="26.142" height="8.724" transform="translate(299.607 168.777) rotate(-36.091)" fill="#96bee6"/>
      <rect id="Rechteck_157088" data-name="Rechteck 157088" width="9.187" height="9.187" transform="translate(305.744 123.047) rotate(-81.084)" fill="#96bee6"/>
      <rect id="Rechteck_157089" data-name="Rechteck 157089" width="9.187" height="9.187" transform="translate(295.898 152.942) rotate(-81.057)" fill="#96bee6"/>
      <rect id="Rechteck_157090" data-name="Rechteck 157090" width="9.187" height="9.187" transform="translate(273.756 122.751) rotate(-81.084)" fill="#96bee6"/>
      <rect id="Rechteck_157091" data-name="Rechteck 157091" width="26.141" height="8.725" transform="translate(277.466 138.587) rotate(-36.091)" fill="#96bee6"/>
      <rect id="Rechteck_157092" data-name="Rechteck 157092" width="9.187" height="9.187" transform="matrix(0.155, -0.988, 0.988, 0.155, 286.869, 183.319)" fill="#96bee6"/>
      <path id="Pfad_101160" data-name="Pfad 101160" d="M283.036,473.655q1.137-5.995,1.843-12.134L270.148,472.25l5.135,7.051Z" transform="translate(51.611 -273.269)" fill="#96bee6"/>
      <rect id="Rechteck_157093" data-name="Rechteck 157093" width="9.187" height="9.187" transform="translate(283.593 92.843) rotate(-81.084)" fill="#96bee6"/>
      <rect id="Rechteck_157094" data-name="Rechteck 157094" width="26.141" height="8.725" transform="translate(286.41 108.095) rotate(-36.062)" fill="#96bee6"/>
      <path id="Pfad_101161" data-name="Pfad 101161" d="M269.4,383.132q-1.948-3.895-4.084-7.673l-1.078,6.861Z" transform="translate(50.482 -289.723)" fill="#96bee6"/>
      <path id="Pfad_101162" data-name="Pfad 101162" d="M272.46,402.261l4.373-3.189q-1.515-4.267-3.247-8.427l-6.261,4.559Z" transform="translate(51.072 -286.818)" fill="#96bee6"/>
      <rect id="Rechteck_157095" data-name="Rechteck 157095" width="26.142" height="8.725" transform="matrix(0.808, -0.589, 0.589, 0.808, 128.386, 108.24)" fill="#96bee6"/>
      <path id="Pfad_101163" data-name="Pfad 101163" d="M31.538,525.941l-1.273,8.091c.306.388.622.77.93,1.155l7.99,1.257,1.427-9.075Z" transform="translate(5.779 -260.953)" fill="#96bee6"/>
      <path id="Pfad_101164" data-name="Pfad 101164" d="M12.918,500.726l-.486,3.087q1.514,3.359,3.172,6.634l4.963.781,1.427-9.075Z" transform="translate(2.37 -265.773)" fill="#96bee6"/>
      <rect id="Rechteck_157096" data-name="Rechteck 157096" width="26.141" height="8.725" transform="translate(245.484 138.291) rotate(-36.091)" fill="#96bee6"/>
      <path id="Pfad_101165" data-name="Pfad 101165" d="M34.247,364.087,30.688,359.2A169.555,169.555,0,0,0,20.5,374.1Z" transform="translate(3.911 -292.831)" fill="#96bee6"/>
      <rect id="Rechteck_157097" data-name="Rechteck 157097" width="26.141" height="8.724" transform="translate(124.547 319.277) rotate(-36.091)" fill="#96bee6"/>
      <rect id="Rechteck_157098" data-name="Rechteck 157098" width="26.141" height="8.725" transform="translate(158.179 19.138) rotate(-36.091)" fill="#96bee6"/>
      <rect id="Rechteck_157099" data-name="Rechteck 157099" width="26.142" height="8.725" transform="translate(236.343 168.514) rotate(-36.091)" fill="#96bee6"/>
      <path id="Pfad_101166" data-name="Pfad 101166" d="M284.466,451.563c.06-1.842.1-3.687.1-5.543,0-1.759-.037-3.51-.094-5.256l-6.82,4.97,5.136,7.051Z" transform="translate(53.047 -277.237)" fill="#96bee6"/>
      <path id="Pfad_101167" data-name="Pfad 101167" d="M275.292,433.582l9.075,1.428.038-.244q-.391-4.644-1.032-9.212l-6.659-1.047Z" transform="translate(52.595 -280.345)" fill="#96bee6"/>
      <path id="Pfad_101168" data-name="Pfad 101168" d="M264.2,429.1l19.678-14.329q-.527-2.305-1.114-4.584l-2.57-3.531-21.13,15.391Z" transform="translate(49.492 -283.758)" fill="#96bee6"/>
      <rect id="Rechteck_157100" data-name="Rechteck 157100" width="26.141" height="8.725" transform="translate(267.619 168.479) rotate(-36.091)" fill="#96bee6"/>
      <rect id="Rechteck_157101" data-name="Rechteck 157101" width="9.188" height="9.187" transform="translate(264.733 153.129) rotate(-81.084)" fill="#96bee6"/>
      <rect id="Rechteck_157102" data-name="Rechteck 157102" width="9.187" height="9.187" transform="translate(318.05 183.147) rotate(-81.084)" fill="#96bee6"/>
      <rect id="Rechteck_157103" data-name="Rechteck 157103" width="26.142" height="8.725" transform="matrix(0.808, -0.589, 0.589, 0.808, 162.281, 198.717)" fill="#96bee6"/>
      <rect id="Rechteck_157104" data-name="Rechteck 157104" width="9.187" height="9.187" transform="translate(168.967 152.803) rotate(-81.084)" fill="#96bee6"/>
      <rect id="Rechteck_157105" data-name="Rechteck 157105" width="9.187" height="9.187" transform="translate(191.117 183.006) rotate(-81.084)" fill="#96bee6"/>
      <rect id="Rechteck_157106" data-name="Rechteck 157106" width="26.141" height="8.725" transform="translate(172.562 168.483) rotate(-36.091)" fill="#96bee6"/>
      <rect id="Rechteck_157107" data-name="Rechteck 157107" width="26.141" height="8.725" transform="translate(140.133 168.514) rotate(-36.091)" fill="#96bee6"/>
      <rect id="Rechteck_157108" data-name="Rechteck 157108" width="9.188" height="9.187" transform="matrix(0.155, -0.988, 0.988, 0.155, 159.493, 183.507)" fill="#96bee6"/>
      <rect id="Rechteck_157109" data-name="Rechteck 157109" width="9.189" height="9.187" transform="translate(178.926 123.062) rotate(-81.084)" fill="#96bee6"/>
      <rect id="Rechteck_157110" data-name="Rechteck 157110" width="26.142" height="8.725" transform="translate(181.591 138.105) rotate(-36.091)" fill="#96bee6"/>
      <rect id="Rechteck_157111" data-name="Rechteck 157111" width="9.187" height="9.187" transform="translate(146.941 122.766) rotate(-81.084)" fill="#96bee6"/>
      <rect id="Rechteck_157112" data-name="Rechteck 157112" width="26.142" height="8.725" transform="translate(150.536 138.446) rotate(-36.091)" fill="#96bee6"/>
      <rect id="Rechteck_157113" data-name="Rechteck 157113" width="26.142" height="8.725" transform="matrix(0.808, -0.589, 0.589, 0.808, 131.103, 198.89)" fill="#96bee6"/>
      <rect id="Rechteck_157114" data-name="Rechteck 157114" width="26.141" height="8.725" transform="translate(159.564 108.069) rotate(-36.091)" fill="#96bee6"/>
      <rect id="Rechteck_157115" data-name="Rechteck 157115" width="9.187" height="9.187" transform="translate(127.509 183.211) rotate(-81.084)" fill="#96bee6"/>
      <rect id="Rechteck_157116" data-name="Rechteck 157116" width="9.187" height="9.187" transform="translate(223.102 183.301) rotate(-81.064)" fill="#96bee6"/>
      <rect id="Rechteck_157117" data-name="Rechteck 157117" width="26.141" height="8.725" transform="translate(214.193 138.31) rotate(-36.091)" fill="#96bee6"/>
      <rect id="Rechteck_157118" data-name="Rechteck 157118" width="26.141" height="8.725" transform="matrix(0.808, -0.589, 0.589, 0.808, 255.319, 108.38)" fill="#96bee6"/>
      <rect id="Rechteck_157119" data-name="Rechteck 157119" width="9.187" height="9.187" transform="translate(232.748 152.834) rotate(-81.084)" fill="#96bee6"/>
      <rect id="Rechteck_157120" data-name="Rechteck 157120" width="9.187" height="9.187" transform="translate(251.611 92.548) rotate(-81.084)" fill="#96bee6"/>
      <rect id="Rechteck_157121" data-name="Rechteck 157121" width="9.187" height="9.187" transform="translate(242.584 122.925) rotate(-81.084)" fill="#96bee6"/>
      <rect id="Rechteck_157122" data-name="Rechteck 157122" width="26.142" height="8.725" transform="translate(203.74 168.31) rotate(-36.091)" fill="#96bee6"/>
      <rect id="Rechteck_157123" data-name="Rechteck 157123" width="26.142" height="8.725" transform="translate(109.078 168.855) rotate(-36.091)" fill="#96bee6"/>
      <rect id="Rechteck_157124" data-name="Rechteck 157124" width="9.187" height="9.187" transform="translate(137.467 153.469) rotate(-81.084)" fill="#96bee6"/>
      <rect id="Rechteck_157125" data-name="Rechteck 157125" width="9.188" height="9.187" transform="translate(200.952 153.098) rotate(-81.084)" fill="#96bee6"/>
      <rect id="Rechteck_157126" data-name="Rechteck 157126" width="26.142" height="8.725" transform="matrix(0.808, -0.589, 0.589, 0.808, 118.105, 138.476)" fill="#96bee6"/>
      <rect id="Rechteck_157127" data-name="Rechteck 157127" width="9.187" height="9.187" transform="translate(210.599 122.629) rotate(-81.084)" fill="#96bee6"/>
      <path id="Pfad_101169" data-name="Pfad 101169" d="M99.537,558.752,78.4,574.144l.45.617q4.07,2.021,8.262,3.83l17.554-12.782Z" transform="translate(14.974 -254.679)" fill="#96bee6"/>
      <rect id="Rechteck_157128" data-name="Rechteck 157128" width="9.187" height="9.187" transform="translate(81.737 33.801) rotate(-81.084)" fill="#96bee6"/>
      <rect id="Rechteck_157129" data-name="Rechteck 157129" width="26.141" height="8.725" transform="translate(85.332 49.482) rotate(-36.091)" fill="#96bee6"/>
      <path id="Pfad_101170" data-name="Pfad 101170" d="M52.428,533.319l-14.2,10.339q3.016,3.221,6.19,6.283l13.143-9.571Z" transform="translate(7.302 -259.542)" fill="#96bee6"/>
      <path id="Pfad_101171" data-name="Pfad 101171" d="M49.98,551.3l-.308,1.954q4.024,3.44,8.253,6.631l1.125-7.159Z" transform="translate(9.484 -256.105)" fill="#96bee6"/>
      <rect id="Rechteck_157130" data-name="Rechteck 157130" width="9.187" height="9.187" transform="translate(103.812 63.855) rotate(-81.084)" fill="#96bee6"/>
      <rect id="Rechteck_157131" data-name="Rechteck 157131" width="9.187" height="9.187" transform="translate(113.721 34.096) rotate(-81.084)" fill="#96bee6"/>
      <rect id="Rechteck_157132" data-name="Rechteck 157132" width="9.187" height="9.187" transform="translate(121.758 304.063) rotate(-81.057)" fill="#96bee6"/>
      <rect id="Rechteck_157133" data-name="Rechteck 157133" width="9.187" height="9.187" transform="translate(143.907 334.269) rotate(-81.084)" fill="#96bee6"/>
      <rect id="Rechteck_157134" data-name="Rechteck 157134" width="26.142" height="8.725" transform="translate(102.396 289.068) rotate(-36.011)" fill="#96bee6"/>
      <rect id="Rechteck_157135" data-name="Rechteck 157135" width="26.142" height="8.725" transform="matrix(0.808, -0.589, 0.589, 0.808, 126.962, 19.306)" fill="#96bee6"/>
      <rect id="Rechteck_157136" data-name="Rechteck 157136" width="9.187" height="9.187" transform="translate(89.773 303.769) rotate(-81.057)" fill="#96bee6"/>
      <rect id="Rechteck_157137" data-name="Rechteck 157137" width="9.187" height="9.187" transform="translate(99.618 273.874) rotate(-81.084)" fill="#96bee6"/>
      <rect id="Rechteck_157138" data-name="Rechteck 157138" width="26.142" height="8.724" transform="translate(71.239 289.271) rotate(-36.062)" fill="#96bee6"/>
      <rect id="Rechteck_157139" data-name="Rechteck 157139" width="9.187" height="9.187" transform="translate(239.419 32.602) rotate(-81.084)" fill="#96bee6"/>
      <path id="Pfad_101172" data-name="Pfad 101172" d="M215.966,324.485l.04-.03-.115-.072Z" transform="translate(41.245 -299.488)" fill="#96bee6"/>
      <rect id="Rechteck_157140" data-name="Rechteck 157140" width="9.187" height="9.187" transform="translate(229.586 62.511) rotate(-81.084)" fill="#96bee6"/>
      <rect id="Rechteck_157141" data-name="Rechteck 157141" width="9.189" height="9.188" transform="translate(289.416 273.733) rotate(-81.057)" fill="#96bee6"/>
      <rect id="Rechteck_157142" data-name="Rechteck 157142" width="26.141" height="8.725" transform="translate(211.143 48.142) rotate(-36.091)" fill="#96bee6"/>
      <path id="Pfad_101173" data-name="Pfad 101173" d="M254.114,522.666l4.638,6.371a168.769,168.769,0,0,0,10.735-17.567Z" transform="translate(48.546 -263.72)" fill="#96bee6"/>
      <path id="Pfad_101174" data-name="Pfad 101174" d="M235.373,351.788l8.449-6.152q-3.148-3.13-6.461-6.088l-7.127,5.188Z" transform="translate(43.981 -296.587)" fill="#96bee6"/>
      <rect id="Rechteck_157143" data-name="Rechteck 157143" width="26.142" height="8.725" transform="translate(148.227 48.354) rotate(-36.062)" fill="#96bee6"/>
      <rect id="Rechteck_157144" data-name="Rechteck 157144" width="9.187" height="9.187" transform="translate(176.617 32.971) rotate(-81.084)" fill="#96bee6"/>
      <rect id="Rechteck_157145" data-name="Rechteck 157145" width="9.187" height="9.189" transform="translate(207.433 32.306) rotate(-81.058)" fill="#96bee6"/>
      <rect id="Rechteck_157146" data-name="Rechteck 157146" width="9.187" height="9.187" transform="translate(198.407 62.684) rotate(-81.084)" fill="#96bee6"/>
      <rect id="Rechteck_157147" data-name="Rechteck 157147" width="26.141" height="8.725" transform="translate(179.159 47.845) rotate(-36.062)" fill="#96bee6"/>
      <rect id="Rechteck_157148" data-name="Rechteck 157148" width="9.187" height="9.187" transform="translate(145.444 33.682) rotate(-81.084)" fill="#96bee6"/>
      <path id="Pfad_101175" data-name="Pfad 101175" d="M84.366,328.415l21.13-15.388-2.285-3.139a167.2,167.2,0,0,0-16.881,6.3l-7.1,5.169Z" transform="translate(15.131 -302.259)" fill="#96bee6"/>
      <path id="Pfad_101176" data-name="Pfad 101176" d="M69.863,558.663l-7.01,5.105q3.895,2.614,7.944,5.009l4.2-3.059Z" transform="translate(12.003 -254.696)" fill="#96bee6"/>
      <rect id="Rechteck_157149" data-name="Rechteck 157149" width="9.187" height="9.187" transform="translate(152.937 303.891) rotate(-81.084)" fill="#96bee6"/>
      <path id="Pfad_101177" data-name="Pfad 101177" d="M139.511,308.834l.844-5.351q-4.717.094-9.37.442l-.548,3.48Z" transform="translate(24.915 -303.483)" fill="#96bee6"/>
      <path id="Pfad_101178" data-name="Pfad 101178" d="M156.55,306.935l9.075,1.427.454-2.882q-4.516-.732-9.108-1.226Z" transform="translate(29.905 -303.335)" fill="#96bee6"/>
      <path id="Pfad_101179" data-name="Pfad 101179" d="M175.158,576.445l-1.274,8.1c3.275-.759,6.508-1.623,9.7-2.57l.645-4.1Z" transform="translate(33.217 -251.297)" fill="#96bee6"/>
      <path id="Pfad_101180" data-name="Pfad 101180" d="M164.119,328.217l21.13-15.38-3.235-4.444q-2.025-.539-4.069-1.032L158.983,321.17Z" transform="translate(30.37 -302.742)" fill="#96bee6"/>
      <path id="Pfad_101181" data-name="Pfad 101181" d="M235.946,550.772l-.061.392c.128-.113.256-.226.384-.34Z" transform="translate(45.06 -256.205)" fill="#96bee6"/>
      <path id="Pfad_101182" data-name="Pfad 101182" d="M144.268,587.483l-2.675-3.671-4.908,3.573c1.994.07,3.993.118,6,.118.529,0,1.053-.015,1.58-.02Z" transform="translate(26.11 -249.888)" fill="#96bee6"/>
      <path id="Pfad_101183" data-name="Pfad 101183" d="M104.329,577.662l-9.075-1.427-.506,3.209q4.374,1.537,8.854,2.84Z" transform="translate(18.097 -251.337)" fill="#96bee6"/>
      <rect id="Rechteck_157150" data-name="Rechteck 157150" width="26.142" height="8.725" transform="translate(187.584 319.228) rotate(-36.011)" fill="#96bee6"/>
      <rect id="Rechteck_157151" data-name="Rechteck 157151" width="9.188" height="9.187" transform="translate(184.921 304.187) rotate(-81.084)" fill="#96bee6"/>
      <rect id="Rechteck_157152" data-name="Rechteck 157152" width="26.141" height="8.725" transform="translate(197.545 289.491) rotate(-36.066)" fill="#96bee6"/>
      <rect id="Rechteck_157153" data-name="Rechteck 157153" width="9.187" height="9.187" transform="matrix(0.155, -0.988, 0.988, 0.155, 174.962, 333.927)" fill="#96bee6"/>
      <rect id="Rechteck_157154" data-name="Rechteck 157154" width="26.141" height="8.724" transform="matrix(0.809, -0.588, 0.588, 0.809, 156.53, 319.568)" fill="#96bee6"/>
      <rect id="Rechteck_157155" data-name="Rechteck 157155" width="9.187" height="9.187" transform="translate(215.976 303.847) rotate(-81.084)" fill="#96bee6"/>
      <rect id="Rechteck_157156" data-name="Rechteck 157156" width="26.142" height="8.725" transform="translate(228.599 289.15) rotate(-36.068)" fill="#96bee6"/>
      <rect id="Rechteck_157157" data-name="Rechteck 157157" width="26.142" height="8.725" transform="matrix(0.808, -0.589, 0.589, 0.808, 261.023, 289.117)" fill="#96bee6"/>
      <rect id="Rechteck_157158" data-name="Rechteck 157158" width="9.187" height="9.187" transform="translate(257.434 273.44) rotate(-81.084)" fill="#96bee6"/>
      <rect id="Rechteck_157159" data-name="Rechteck 157159" width="26.142" height="8.725" transform="translate(219.57 319.523) rotate(-36.011)" fill="#96bee6"/>
      <rect id="Rechteck_157160" data-name="Rechteck 157160" width="9.187" height="9.187" transform="matrix(0.155, -0.988, 0.988, 0.155, 247.96, 304.141)" fill="#96bee6"/>
      <path id="Pfad_101184" data-name="Pfad 101184" d="M189.924,326.41l13.325-9.706q-4.637-2.106-9.423-3.929l-9.038,6.583Z" transform="translate(35.301 -301.707)" fill="#96bee6"/>
      <rect id="Rechteck_157161" data-name="Rechteck 157161" width="26.141" height="8.725" transform="translate(170.017 78.068) rotate(-36.062)" fill="#96bee6"/>
      <rect id="Rechteck_157162" data-name="Rechteck 157162" width="26.141" height="8.725" transform="translate(137.416 77.864) rotate(-36.062)" fill="#96bee6"/>
      <rect id="Rechteck_157163" data-name="Rechteck 157163" width="26.141" height="8.725" transform="matrix(0.808, -0.589, 0.589, 0.808, 52.902, 49.51)" fill="#96bee6"/>
      <rect id="Rechteck_157164" data-name="Rechteck 157164" width="26.142" height="8.725" transform="translate(116.435 49.158) rotate(-36.062)" fill="#96bee6"/>
      <rect id="Rechteck_157165" data-name="Rechteck 157165" width="9.187" height="9.187" transform="translate(156.776 92.857) rotate(-81.084)" fill="#96bee6"/>
      <rect id="Rechteck_157166" data-name="Rechteck 157166" width="9.189" height="9.187" transform="translate(166.423 62.388) rotate(-81.084)" fill="#96bee6"/>
      <rect id="Rechteck_157167" data-name="Rechteck 157167" width="9.187" height="9.187" transform="translate(299.063 243.265) rotate(-81.084)" fill="#96bee6"/>
      <rect id="Rechteck_157168" data-name="Rechteck 157168" width="9.187" height="9.187" transform="translate(188.572 92.593) rotate(-81.084)" fill="#96bee6"/>
      <rect id="Rechteck_157169" data-name="Rechteck 157169" width="26.142" height="8.725" transform="matrix(0.808, -0.589, 0.589, 0.808, 74.977, 79.566)" fill="#96bee6"/>
      <rect id="Rechteck_157170" data-name="Rechteck 157170" width="9.187" height="9.187" transform="translate(72.263 64.505) rotate(-81.084)" fill="#96bee6"/>
      <rect id="Rechteck_157171" data-name="Rechteck 157171" width="26.141" height="8.725" transform="translate(106.597 78.528) rotate(-36.065)" fill="#96bee6"/>
      <rect id="Rechteck_157172" data-name="Rechteck 157172" width="9.187" height="9.187" transform="translate(93.528 93.552) rotate(-81.084)" fill="#96bee6"/>
      <rect id="Rechteck_157173" data-name="Rechteck 157173" width="26.14" height="8.725" transform="translate(95.958 108.273) rotate(-36.063)" fill="#96bee6"/>
      <rect id="Rechteck_157174" data-name="Rechteck 157174" width="9.187" height="9.187" transform="translate(134.986 63.144) rotate(-81.084)" fill="#96bee6"/>
      <path id="Pfad_101185" data-name="Pfad 101185" d="M245.642,357.016l8.36,1.313q-3.479-4.368-7.23-8.5Z" transform="translate(46.926 -294.622)" fill="#96bee6"/>
      <path id="Pfad_101186" data-name="Pfad 101186" d="M253.866,377.346l9.821-7.152q-2.351-3.683-4.884-7.235l-10.073,7.336Z" transform="translate(47.517 -292.111)" fill="#96bee6"/>
      <rect id="Rechteck_157175" data-name="Rechteck 157175" width="26.142" height="8.725" transform="matrix(0.808, -0.589, 0.589, 0.808, 264.258, 77.889)" fill="#96bee6"/>
      <path id="Pfad_101187" data-name="Pfad 101187" d="M276.651,497.75q2.643-6.963,4.689-14.207l-19.549,14.238,5.135,7.052Z" transform="translate(50.012 -269.058)" fill="#96bee6"/>
      <rect id="Rechteck_157176" data-name="Rechteck 157176" width="9.188" height="9.187" transform="translate(309.021 213.524) rotate(-81.084)" fill="#96bee6"/>
      <rect id="Rechteck_157177" data-name="Rechteck 157177" width="9.187" height="9.188" transform="matrix(0.155, -0.988, 0.988, 0.155, 261.568, 62.806)" fill="#96bee6"/>
      <rect id="Rechteck_157178" data-name="Rechteck 157178" width="26.142" height="8.725" transform="translate(192.167 108.272) rotate(-36.062)" fill="#96bee6"/>
      <rect id="Rechteck_157179" data-name="Rechteck 157179" width="9.187" height="9.187" transform="matrix(0.155, -0.988, 0.988, 0.155, 220.556, 92.887)" fill="#96bee6"/>
      <rect id="Rechteck_157180" data-name="Rechteck 157180" width="26.142" height="8.725" transform="matrix(0.808, -0.589, 0.589, 0.808, 201.308, 78.049)" fill="#96bee6"/>
      <rect id="Rechteck_157181" data-name="Rechteck 157181" width="26.142" height="8.725" transform="matrix(0.808, -0.589, 0.589, 0.808, 242.237, 47.853)" fill="#96bee6"/>
      <rect id="Rechteck_157182" data-name="Rechteck 157182" width="26.141" height="8.725" transform="translate(233.293 78.344) rotate(-36.063)" fill="#96bee6"/>
      <rect id="Rechteck_157183" data-name="Rechteck 157183" width="26.141" height="8.725" transform="translate(223.335 108.086) rotate(-36.067)" fill="#96bee6"/>
      <rect id="Rechteck_157184" data-name="Rechteck 157184" width="26.142" height="8.725" transform="matrix(0.808, -0.589, 0.589, 0.808, 239.002, 259.081)" fill="#96bee6"/>
      <rect id="Rechteck_157185" data-name="Rechteck 157185" width="26.142" height="8.725" transform="translate(175.395 259.287) rotate(-36.068)" fill="#96bee6"/>
      <rect id="Rechteck_157186" data-name="Rechteck 157186" width="9.187" height="9.187" transform="translate(193.949 273.809) rotate(-81.084)" fill="#96bee6"/>
      <rect id="Rechteck_157187" data-name="Rechteck 157187" width="26.142" height="8.725" transform="translate(206.572 259.11) rotate(-36.011)" fill="#96bee6"/>
      <rect id="Rechteck_157188" data-name="Rechteck 157188" width="9.187" height="9.187" transform="translate(203.783 243.902) rotate(-81.084)" fill="#96bee6"/>
      <rect id="Rechteck_157189" data-name="Rechteck 157189" width="26.142" height="8.725" transform="translate(143.41 258.991) rotate(-36.066)" fill="#96bee6"/>
      <rect id="Rechteck_157190" data-name="Rechteck 157190" width="26.142" height="8.725" transform="translate(165.559 289.192) rotate(-36.011)" fill="#96bee6"/>
      <rect id="Rechteck_157191" data-name="Rechteck 157191" width="9.187" height="9.187" transform="translate(162.772 273.984) rotate(-81.084)" fill="#96bee6"/>
      <rect id="Rechteck_157192" data-name="Rechteck 157192" width="26.142" height="8.725" transform="translate(248.03 228.705) rotate(-36.091)" fill="#96bee6"/>
      <rect id="Rechteck_157193" data-name="Rechteck 157193" width="9.187" height="9.188" transform="translate(225.934 274.106) rotate(-81.084)" fill="#96bee6"/>
      <rect id="Rechteck_157194" data-name="Rechteck 157194" width="9.189" height="9.188" transform="translate(267.392 243.698) rotate(-81.065)" fill="#96bee6"/>
      <rect id="Rechteck_157195" data-name="Rechteck 157195" width="26.142" height="8.725" transform="translate(43.879 79.891) rotate(-36.091)" fill="#96bee6"/>
      <rect id="Rechteck_157196" data-name="Rechteck 157196" width="26.142" height="8.725" transform="translate(270.052 258.741) rotate(-36.091)" fill="#96bee6"/>
      <rect id="Rechteck_157197" data-name="Rechteck 157197" width="9.187" height="9.188" transform="translate(235.408 243.402) rotate(-81.057)" fill="#96bee6"/>
      <rect id="Rechteck_157198" data-name="Rechteck 157198" width="26.141" height="8.725" transform="matrix(0.808, -0.589, 0.589, 0.808, 49.095, 259.066)" fill="#96bee6"/>
      <rect id="Rechteck_157199" data-name="Rechteck 157199" width="9.187" height="9.187" transform="translate(67.634 273.578) rotate(-81.084)" fill="#96bee6"/>
      <rect id="Rechteck_157200" data-name="Rechteck 157200" width="9.187" height="9.188" transform="matrix(0.155, -0.988, 0.988, 0.155, 77.469, 243.669)" fill="#96bee6"/>
      <rect id="Rechteck_157201" data-name="Rechteck 157201" width="9.187" height="9.188" transform="matrix(0.155, -0.988, 0.988, 0.155, 45.487, 243.372)" fill="#96bee6"/>
      <path id="Pfad_101188" data-name="Pfad 101188" d="M33.873,507.962,19.41,518.5q2.217,3.778,4.622,7.427l14.977-10.908Z" transform="translate(3.703 -264.39)" fill="#96bee6"/>
      <rect id="Rechteck_157202" data-name="Rechteck 157202" width="26.142" height="8.725" transform="translate(134.381 289.364) rotate(-36.011)" fill="#96bee6"/>
      <path id="Pfad_101189" data-name="Pfad 101189" d="M34.765,352.8l-.938,5.988,9.072,1.432,1.427-9.075-7.1-1.116Q35.981,351.4,34.765,352.8Z" transform="translate(6.459 -294.584)" fill="#96bee6"/>
      <rect id="Rechteck_157203" data-name="Rechteck 157203" width="9.187" height="9.187" transform="translate(130.786 273.687) rotate(-81.064)" fill="#96bee6"/>
      <rect id="Rechteck_157204" data-name="Rechteck 157204" width="26.142" height="8.725" transform="translate(112.241 259.175) rotate(-36.091)" fill="#96bee6"/>
      <rect id="Rechteck_157205" data-name="Rechteck 157205" width="9.187" height="9.187" transform="translate(108.646 243.496) rotate(-81.084)" fill="#96bee6"/>
      <rect id="Rechteck_157206" data-name="Rechteck 157206" width="26.142" height="8.725" transform="translate(80.257 258.878) rotate(-36.091)" fill="#96bee6"/>
      <rect id="Rechteck_157207" data-name="Rechteck 157207" width="26.142" height="8.725" transform="translate(90.093 228.973) rotate(-36.091)" fill="#96bee6"/>
    </g>
    <g id="layer1" transform="translate(261.451 0)">
      <ellipse id="path6166" cx="164.911" cy="168.402" rx="164.911" ry="168.402" fill="#96bee6"/>
    </g>
  </g>
</svg>
