<?xml version="1.0" encoding="UTF-8"?>
<svg id="Ebene_1" data-name="Ebene 1" xmlns="http://www.w3.org/2000/svg" version="1.1" viewBox="0 0 459 69.2">
  <defs>
    <style>
      .cls-1 {
        fill: #ef7f02;
      }

      .cls-1, .cls-2, .cls-3 {
        stroke-width: 0px;
      }

      .cls-2 {
        fill: #ef7f01;
      }

      .cls-3 {
        fill: #191c1c;
      }

      .cls-4 {
        isolation: isolate;
      }
    </style>
  </defs>
  <g id="Gruppe_620" data-name="Gruppe 620">
    <g id="Gruppe_173" data-name="Gruppe 173">
      <g id="Gruppe_1" data-name="Gruppe 1">
        <path id="Pfad_1" data-name="Pfad 1" class="cls-2" d="M47.7,0H8.4v60.8c0,4.6,3.8,8.4,8.4,8.4h10.4V12h4.5v3.7c2.6-2.9,6.4-4.5,10.3-4.3,6,.6,10.1,5.3,10.2,15.3.1,10.6-4.3,16.6-11.1,17.2-3.6.2-7.1-1.3-9.4-4.2v29.5h24.3V8.3c0-4.6-3.7-8.3-8.3-8.3Z"/>
        <path id="Pfad_2" data-name="Pfad 2" class="cls-2" d="M40.6,40c5.1,0,7.1-5.2,7.3-11.8.2-7.7-2.3-12.1-6.9-12.8-3.8-.6-7.6,2.2-9.3,4.4v15.7c3,4,6.4,4.6,8.8,4.5Z"/>
      </g>
      <rect id="Rechteck_1" data-name="Rechteck 1" class="cls-2" width="4.5" height="69.2"/>
    </g>
    <g id="qed.perspectivia.net" class="cls-4">
      <g class="cls-4">
        <path class="cls-1" d="M89,55.6v-11.5h-.3c-.2.4-.6.9-1.1,1.5s-1.1,1.1-1.9,1.6-2,.7-3.4.7-3.4-.5-4.8-1.4c-1.4-.9-2.5-2.2-3.3-3.9-.8-1.7-1.2-3.7-1.2-6s.4-4.3,1.2-6c.8-1.7,1.9-3,3.3-3.9,1.4-.9,3-1.4,4.9-1.4s2.5.2,3.4.7,1.5,1,1.9,1.6.8,1.1,1,1.5h.4v-3.5h3.2v30h-3.4ZM82.8,44.9c1.3,0,2.5-.4,3.4-1.1.9-.7,1.6-1.7,2.1-2.9s.7-2.7.7-4.4-.2-3.1-.7-4.3c-.5-1.2-1.2-2.2-2.1-2.9-.9-.7-2.1-1-3.4-1s-2.6.4-3.5,1.1c-.9.7-1.6,1.7-2.1,2.9-.5,1.2-.7,2.6-.7,4.2s.2,3,.7,4.2c.5,1.3,1.2,2.3,2.1,3s2.1,1.1,3.5,1.1Z"/>
        <path class="cls-1" d="M107.6,47.9c-2.1,0-3.9-.5-5.4-1.4s-2.7-2.2-3.5-3.9c-.8-1.7-1.2-3.6-1.2-5.9s.4-4.2,1.2-5.9c.8-1.7,2-3,3.4-4,1.5-1,3.2-1.4,5.2-1.4s2.3.2,3.4.6c1.1.4,2.1,1,3,1.8s1.6,2,2.2,3.4c.5,1.4.8,3.1.8,5.1v1.4h-16.8v-2.9h13.4c0-1.2-.2-2.3-.7-3.3s-1.2-1.7-2.1-2.3c-.9-.6-1.9-.8-3.2-.8s-2.5.3-3.5,1-1.7,1.5-2.2,2.6c-.5,1.1-.8,2.2-.8,3.4v1.9c0,1.6.3,3,.9,4.2.6,1.1,1.4,2,2.4,2.6,1,.6,2.2.9,3.6.9s1.7-.1,2.4-.4c.7-.2,1.3-.6,1.9-1.1.5-.5.9-1.1,1.2-1.9l3.2.9c-.3,1.1-.9,2.1-1.7,2.9-.8.8-1.8,1.5-3,1.9-1.2.5-2.5.7-4,.7Z"/>
        <path class="cls-1" d="M130,47.9c-1.8,0-3.4-.5-4.8-1.4-1.4-.9-2.5-2.2-3.3-3.9-.8-1.7-1.2-3.7-1.2-6s.4-4.3,1.2-6c.8-1.7,1.9-3,3.3-3.9,1.4-.9,3-1.4,4.9-1.4s2.5.2,3.4.7,1.5,1,1.9,1.6.8,1.1,1,1.5h.3v-10.7h3.4v29.1h-3.2v-3.4h-.4c-.2.4-.6.9-1.1,1.5s-1.1,1.1-1.9,1.6-2,.7-3.4.7ZM130.4,44.9c1.3,0,2.5-.4,3.4-1.1.9-.7,1.6-1.7,2.1-2.9s.7-2.7.7-4.4-.2-3.1-.7-4.3c-.5-1.2-1.2-2.2-2.1-2.9-.9-.7-2.1-1-3.4-1s-2.6.4-3.5,1.1c-.9.7-1.6,1.7-2.1,2.9-.5,1.2-.7,2.6-.7,4.2s.2,3,.7,4.2c.5,1.3,1.2,2.3,2.1,3s2.1,1.1,3.5,1.1Z"/>
      </g>
      <g class="cls-4">
        <path class="cls-3" d="M149,47.6c-.7,0-1.3-.3-1.8-.8-.5-.5-.8-1.1-.8-1.8s.3-1.3.8-1.8c.5-.5,1.1-.8,1.8-.8s1.3.3,1.8.8.8,1.1.8,1.8-.1.9-.3,1.3c-.2.4-.5.7-.9.9-.4.2-.8.3-1.3.3Z"/>
        <path class="cls-3" d="M157.6,55.6v-30h3.2v3.5h.4c.2-.4.6-.9,1-1.5s1.1-1.1,1.9-1.6,2-.7,3.4-.7,3.5.5,4.9,1.4c1.4.9,2.5,2.2,3.3,3.9s1.2,3.7,1.2,6-.4,4.3-1.2,6-1.9,3-3.3,3.9c-1.4.9-3,1.4-4.8,1.4s-2.5-.2-3.4-.7-1.5-1-1.9-1.6-.8-1.1-1.1-1.5h-.3v11.5h-3.4ZM160.9,36.5c0,1.6.2,3.1.7,4.4s1.2,2.2,2.1,2.9c.9.7,2.1,1.1,3.4,1.1s2.6-.4,3.5-1.1c.9-.7,1.7-1.7,2.1-3,.5-1.3.7-2.7.7-4.2s-.2-2.9-.7-4.2c-.5-1.2-1.2-2.2-2.1-2.9-.9-.7-2.1-1.1-3.5-1.1s-2.5.3-3.4,1c-.9.7-1.6,1.6-2.1,2.9s-.7,2.7-.7,4.3Z"/>
        <path class="cls-3" d="M191.1,47.9c-2.1,0-3.9-.5-5.4-1.4s-2.7-2.2-3.5-3.9c-.8-1.7-1.2-3.6-1.2-5.9s.4-4.2,1.2-5.9c.8-1.7,2-3,3.4-4,1.5-1,3.2-1.4,5.2-1.4s2.3.2,3.4.6c1.1.4,2.1,1,3,1.8s1.6,2,2.2,3.4c.5,1.4.8,3.1.8,5.1v1.4h-16.8v-2.9h13.4c0-1.2-.2-2.3-.7-3.3s-1.2-1.7-2.1-2.3c-.9-.6-1.9-.8-3.2-.8s-2.5.3-3.5,1-1.7,1.5-2.2,2.6c-.5,1.1-.8,2.2-.8,3.4v1.9c0,1.6.3,3,.9,4.2.6,1.1,1.4,2,2.4,2.6,1,.6,2.2.9,3.6.9s1.7-.1,2.4-.4c.7-.2,1.3-.6,1.9-1.1.5-.5.9-1.1,1.2-1.9l3.2.9c-.3,1.1-.9,2.1-1.7,2.9-.8.8-1.8,1.5-3,1.9-1.2.5-2.5.7-4,.7Z"/>
        <path class="cls-3" d="M205.3,47.4v-21.8h3.2v3.3h.2c.4-1.1,1.1-2,2.2-2.6,1-.7,2.2-1,3.5-1s.6,0,.9,0c.4,0,.6,0,.8,0v3.4c-.1,0-.4,0-.8-.1-.4,0-.8,0-1.3,0-1.1,0-2,.2-2.8.7-.8.4-1.5,1-2,1.8-.5.8-.7,1.6-.7,2.6v13.8h-3.4Z"/>
        <path class="cls-3" d="M235.6,30.5l-3,.9c-.2-.5-.5-1-.8-1.5-.4-.5-.9-.9-1.5-1.2-.6-.3-1.4-.5-2.4-.5s-2.4.3-3.3.9c-.9.6-1.3,1.4-1.3,2.3s.3,1.5.9,2c.6.5,1.6.9,2.8,1.2l3.2.8c2,.5,3.4,1.2,4.4,2.2,1,1,1.4,2.2,1.4,3.7s-.4,2.4-1.1,3.4c-.7,1-1.7,1.8-3,2.3s-2.8.9-4.5.9-4.1-.5-5.5-1.4-2.4-2.4-2.8-4.2l3.2-.8c.3,1.2.9,2.1,1.7,2.6.8.6,2,.9,3.3.9s2.8-.3,3.7-1c.9-.7,1.4-1.5,1.4-2.4s-.3-1.4-.8-1.9c-.5-.5-1.3-.9-2.4-1.2l-3.6-.9c-2-.5-3.5-1.2-4.4-2.2s-1.4-2.3-1.4-3.8.3-2.3,1-3.3,1.6-1.7,2.9-2.2c1.2-.5,2.6-.8,4.1-.8s3.9.5,5.1,1.4c1.2.9,2.1,2.2,2.6,3.8Z"/>
        <path class="cls-3" d="M241.1,55.6v-30h3.2v3.5h.4c.2-.4.6-.9,1-1.5s1.1-1.1,1.9-1.6c.8-.5,2-.7,3.4-.7s3.5.5,4.9,1.4c1.4.9,2.5,2.2,3.3,3.9s1.2,3.7,1.2,6-.4,4.3-1.2,6-1.9,3-3.3,3.9c-1.4.9-3,1.4-4.8,1.4s-2.5-.2-3.4-.7-1.5-1-1.9-1.6c-.5-.6-.8-1.1-1.1-1.5h-.3v11.5h-3.4ZM244.4,36.5c0,1.6.2,3.1.7,4.4.5,1.3,1.2,2.2,2.1,2.9.9.7,2.1,1.1,3.4,1.1s2.6-.4,3.5-1.1c.9-.7,1.7-1.7,2.1-3,.5-1.3.7-2.7.7-4.2s-.2-2.9-.7-4.2c-.5-1.2-1.2-2.2-2.1-2.9-.9-.7-2.1-1.1-3.5-1.1s-2.5.3-3.4,1c-.9.7-1.6,1.6-2.1,2.9s-.7,2.7-.7,4.3Z"/>
        <path class="cls-3" d="M274.6,47.9c-2.1,0-3.9-.5-5.4-1.4-1.5-.9-2.7-2.2-3.5-3.9-.8-1.7-1.2-3.6-1.2-5.9s.4-4.2,1.2-5.9c.8-1.7,2-3,3.4-4s3.2-1.4,5.2-1.4,2.3.2,3.4.6c1.1.4,2.1,1,3,1.8s1.6,2,2.2,3.4c.5,1.4.8,3.1.8,5.1v1.4h-16.8v-2.9h13.4c0-1.2-.2-2.3-.7-3.3-.5-1-1.2-1.7-2.1-2.3-.9-.6-1.9-.8-3.2-.8s-2.5.3-3.5,1-1.7,1.5-2.2,2.6c-.5,1.1-.8,2.2-.8,3.4v1.9c0,1.6.3,3,.9,4.2.6,1.1,1.4,2,2.4,2.6,1,.6,2.2.9,3.6.9s1.7-.1,2.4-.4c.7-.2,1.3-.6,1.9-1.1.5-.5.9-1.1,1.2-1.9l3.2.9c-.3,1.1-.9,2.1-1.7,2.9-.8.8-1.8,1.5-3,1.9-1.2.5-2.5.7-4,.7Z"/>
        <path class="cls-3" d="M297.6,47.9c-2,0-3.8-.5-5.3-1.4s-2.6-2.3-3.4-4c-.8-1.7-1.2-3.6-1.2-5.8s.4-4.2,1.2-5.9c.8-1.7,2-3,3.4-4,1.5-1,3.2-1.4,5.2-1.4s2.9.3,4.1.9c1.2.6,2.2,1.4,3,2.4.8,1,1.3,2.2,1.5,3.6h-3.4c-.3-1-.8-1.9-1.7-2.6-.9-.8-2.1-1.2-3.5-1.2s-2.5.3-3.4,1c-1,.7-1.7,1.6-2.3,2.9-.5,1.2-.8,2.7-.8,4.3s.3,3.2.8,4.4,1.3,2.2,2.3,2.9,2.1,1,3.5,1,1.7-.2,2.4-.5c.7-.3,1.3-.7,1.8-1.3s.8-1.2,1.1-2h3.4c-.2,1.3-.7,2.4-1.4,3.5-.7,1-1.7,1.8-2.9,2.4s-2.6.9-4.2.9Z"/>
        <path class="cls-3" d="M320.5,25.6v2.8h-11.3v-2.8h11.3ZM312.5,20.4h3.4v20.8c0,.9.1,1.7.4,2.1s.6.8,1.1.9c.4.2.9.2,1.4.2s.7,0,.9,0,.4,0,.6-.1l.7,3c-.2,0-.5.2-1,.3-.4,0-.9.1-1.5.1-.9,0-1.9-.2-2.8-.6-.9-.4-1.7-1-2.2-1.9s-.9-1.9-.9-3.2v-21.7Z"/>
        <path class="cls-3" d="M327.3,22c-.7,0-1.2-.2-1.7-.7s-.7-1-.7-1.6.2-1.2.7-1.6,1-.7,1.7-.7,1.2.2,1.7.7.7,1,.7,1.6-.2,1.2-.7,1.6-1,.7-1.7.7ZM325.6,47.4v-21.8h3.4v21.8h-3.4Z"/>
        <path class="cls-3" d="M352.9,25.6l-8.1,21.8h-3.4l-8.1-21.8h3.6l6,17.4h.2l6-17.4h3.6Z"/>
        <path class="cls-3" d="M359.1,22c-.7,0-1.2-.2-1.7-.7s-.7-1-.7-1.6.2-1.2.7-1.6,1-.7,1.7-.7,1.2.2,1.7.7.7,1,.7,1.6-.2,1.2-.7,1.6-1,.7-1.7.7ZM357.4,47.4v-21.8h3.4v21.8h-3.4Z"/>
        <path class="cls-3" d="M373.3,47.9c-1.4,0-2.6-.3-3.8-.8-1.1-.5-2-1.3-2.7-2.3s-1-2.2-1-3.6.2-2.3.7-3,1.2-1.4,2-1.8c.8-.4,1.7-.8,2.7-1s2-.4,3-.5c1.3-.2,2.4-.3,3.2-.4.8,0,1.4-.2,1.8-.5s.6-.6.6-1.1h0c0-1.5-.4-2.6-1.1-3.4-.8-.8-1.9-1.2-3.5-1.2s-2.9.4-3.8,1.1c-.9.7-1.5,1.4-1.9,2.2l-3.2-1.1c.6-1.3,1.3-2.4,2.3-3.1,1-.7,2-1.3,3.1-1.6,1.1-.3,2.2-.4,3.3-.4s1.5,0,2.4.2c.9.2,1.8.5,2.7,1,.9.5,1.6,1.3,2.1,2.3s.9,2.4.9,4.1v14.4h-3.4v-3h-.2c-.2.5-.6,1-1.1,1.5s-1.2,1-2.1,1.4c-.9.4-2,.6-3.2.6ZM373.8,44.9c1.3,0,2.4-.3,3.4-.8s1.6-1.2,2.1-2c.5-.8.7-1.7.7-2.6v-3.1c-.1.2-.5.3-.9.5-.5.1-1,.3-1.6.4s-1.2.2-1.8.3c-.6,0-1.1.1-1.4.2-.9.1-1.7.3-2.4.5s-1.4.6-1.8,1.1-.7,1.2-.7,2,.4,2,1.3,2.6c.9.6,2,.9,3.3.9Z"/>
      </g>
      <g class="cls-4">
        <path class="cls-2" d="M391.8,47.6c-.7,0-1.3-.3-1.8-.8s-.8-1.1-.8-1.8.3-1.3.8-1.8,1.1-.8,1.8-.8,1.3.3,1.8.8.8,1.1.8,1.8-.1.9-.3,1.3c-.2.4-.5.7-.9.9-.4.2-.8.3-1.3.3Z"/>
        <path class="cls-2" d="M403.8,34.3v13.1h-3.4v-21.8h3.2v3.4h.3c.5-1.1,1.3-2,2.3-2.7,1-.7,2.4-1,4-1s2.8.3,3.9.9c1.1.6,2,1.5,2.6,2.7.6,1.2.9,2.8.9,4.6v13.9h-3.4v-13.6c0-1.7-.4-3.1-1.3-4-.9-1-2.1-1.4-3.7-1.4s-2,.2-2.9.7-1.5,1.1-2,2c-.5.9-.7,2-.7,3.2Z"/>
        <path class="cls-2" d="M433,47.9c-2.1,0-3.9-.5-5.4-1.4-1.5-.9-2.7-2.2-3.5-3.9-.8-1.7-1.2-3.6-1.2-5.9s.4-4.2,1.2-5.9c.8-1.7,2-3,3.4-4s3.2-1.4,5.2-1.4,2.3.2,3.4.6c1.1.4,2.1,1,3,1.8s1.6,2,2.2,3.4c.5,1.4.8,3.1.8,5.1v1.4h-16.8v-2.9h13.4c0-1.2-.2-2.3-.7-3.3-.5-1-1.2-1.7-2.1-2.3-.9-.6-1.9-.8-3.2-.8s-2.5.3-3.5,1-1.7,1.5-2.2,2.6c-.5,1.1-.8,2.2-.8,3.4v1.9c0,1.6.3,3,.9,4.2.6,1.1,1.4,2,2.4,2.6,1,.6,2.2.9,3.6.9s1.7-.1,2.4-.4c.7-.2,1.3-.6,1.9-1.1.5-.5.9-1.1,1.2-1.9l3.2.9c-.3,1.1-.9,2.1-1.7,2.9-.8.8-1.8,1.5-3,1.9-1.2.5-2.5.7-4,.7Z"/>
        <path class="cls-2" d="M456.6,25.6v2.8h-11.3v-2.8h11.3ZM448.6,20.4h3.4v20.8c0,.9.1,1.7.4,2.1s.6.8,1.1.9c.4.2.9.2,1.4.2s.7,0,.9,0,.4,0,.6-.1l.7,3c-.2,0-.5.2-1,.3-.4,0-.9.1-1.5.1-.9,0-1.9-.2-2.8-.6-.9-.4-1.7-1-2.2-1.9s-.9-1.9-.9-3.2v-21.7Z"/>
      </g>
    </g>
  </g>
</svg>