<?xml version="1.0" encoding="UTF-8" standalone="no"?>
<svg
   xmlns:dc="http://purl.org/dc/elements/1.1/"
   xmlns:cc="http://creativecommons.org/ns#"
   xmlns:rdf="http://www.w3.org/1999/02/22-rdf-syntax-ns#"
   xmlns:svg="http://www.w3.org/2000/svg"
   xmlns="http://www.w3.org/2000/svg"
   xmlns:sodipodi="http://sodipodi.sourceforge.net/DTD/sodipodi-0.dtd"
   xmlns:inkscape="http://www.inkscape.org/namespaces/inkscape"
   id="Ebene_1"
   data-name="Ebene 1"
   version="1.1"
   viewBox="0 0 384.10001 38.200002"
   sodipodi:docname="qed-logo-solo.svg"
   width="384.10001"
   height="38.200001"
   inkscape:version="0.92.4 (5da689c313, 2019-01-14)">
  <metadata
     id="metadata937">
    <rdf:RDF>
      <cc:Work
         rdf:about="">
        <dc:format>image/svg+xml</dc:format>
        <dc:type
           rdf:resource="http://purl.org/dc/dcmitype/StillImage" />
        <dc:title></dc:title>
      </cc:Work>
    </rdf:RDF>
  </metadata>
  <sodipodi:namedview
     pagecolor="#ffffff"
     bordercolor="#666666"
     borderopacity="1"
     objecttolerance="10"
     gridtolerance="10"
     guidetolerance="10"
     inkscape:pageopacity="0"
     inkscape:pageshadow="2"
     inkscape:window-width="1920"
     inkscape:window-height="1017"
     id="namedview935"
     showgrid="false"
     inkscape:zoom="3.1045752"
     inkscape:cx="156.5"
     inkscape:cy="21.000005"
     inkscape:window-x="-8"
     inkscape:window-y="1061"
     inkscape:window-maximized="1"
     inkscape:current-layer="Ebene_1"
     fit-margin-top="0"
     fit-margin-left="0"
     fit-margin-right="0"
     fit-margin-bottom="0" />
  <defs
     id="defs879">
    <style
       id="style877">
      .cls-1 {
        fill: #ef7f00;
      }

      .cls-1, .cls-2, .cls-3 {
        stroke-width: 0px;
      }

      .cls-2 {
        fill: #ef7f00;
      }

      .cls-3 {
        fill: #495353;
      }

      .cls-4 {
        isolation: isolate;
      }
    </style>
  </defs>
  <g
     style="isolation:isolate"
     class="cls-4"
     id="qed.perspectivia.net"
     transform="translate(-73,-17.4)">
    <g
       style="isolation:isolate"
       id="g892"
       class="cls-4">
      <path
         style="fill:#ef7f00;stroke-width:0px"
         inkscape:connector-curvature="0"
         id="path886"
         d="M 89,55.6 V 44.1 h -0.3 c -0.2,0.4 -0.6,0.9 -1.1,1.5 -0.5,0.6 -1.1,1.1 -1.9,1.6 -0.8,0.5 -2,0.7 -3.4,0.7 -1.4,0 -3.4,-0.5 -4.8,-1.4 -1.4,-0.9 -2.5,-2.2 -3.3,-3.9 -0.8,-1.7 -1.2,-3.7 -1.2,-6 0,-2.3 0.4,-4.3 1.2,-6 0.8,-1.7 1.9,-3 3.3,-3.9 1.4,-0.9 3,-1.4 4.9,-1.4 1.9,0 2.5,0.2 3.4,0.7 0.9,0.5 1.5,1 1.9,1.6 0.4,0.6 0.8,1.1 1,1.5 h 0.4 v -3.5 h 3.2 v 30 H 88.9 Z M 82.8,44.9 c 1.3,0 2.5,-0.4 3.4,-1.1 0.9,-0.7 1.6,-1.7 2.1,-2.9 0.5,-1.2 0.7,-2.7 0.7,-4.4 0,-1.7 -0.2,-3.1 -0.7,-4.3 -0.5,-1.2 -1.2,-2.2 -2.1,-2.9 -0.9,-0.7 -2.1,-1 -3.4,-1 -1.3,0 -2.6,0.4 -3.5,1.1 -0.9,0.7 -1.6,1.7 -2.1,2.9 -0.5,1.2 -0.7,2.6 -0.7,4.2 0,1.6 0.2,3 0.7,4.2 0.5,1.3 1.2,2.3 2.1,3 0.9,0.7 2.1,1.1 3.5,1.1 z"
         class="cls-1" />
      <path
         style="fill:#ef7f00;stroke-width:0px"
         inkscape:connector-curvature="0"
         id="path888"
         d="m 107.6,47.9 c -2.1,0 -3.9,-0.5 -5.4,-1.4 -1.5,-0.9 -2.7,-2.2 -3.5,-3.9 -0.8,-1.7 -1.2,-3.6 -1.2,-5.9 0,-2.3 0.4,-4.2 1.2,-5.9 0.8,-1.7 2,-3 3.4,-4 1.5,-1 3.2,-1.4 5.2,-1.4 2,0 2.3,0.2 3.4,0.6 1.1,0.4 2.1,1 3,1.8 0.9,0.8 1.6,2 2.2,3.4 0.5,1.4 0.8,3.1 0.8,5.1 v 1.4 H 99.9 v -2.9 h 13.4 c 0,-1.2 -0.2,-2.3 -0.7,-3.3 -0.5,-1 -1.2,-1.7 -2.1,-2.3 -0.9,-0.6 -1.9,-0.8 -3.2,-0.8 -1.3,0 -2.5,0.3 -3.5,1 -1,0.7 -1.7,1.5 -2.2,2.6 -0.5,1.1 -0.8,2.2 -0.8,3.4 v 1.9 c 0,1.6 0.3,3 0.9,4.2 0.6,1.1 1.4,2 2.4,2.6 1,0.6 2.2,0.9 3.6,0.9 1.4,0 1.7,-0.1 2.4,-0.4 0.7,-0.2 1.3,-0.6 1.9,-1.1 0.5,-0.5 0.9,-1.1 1.2,-1.9 l 3.2,0.9 c -0.3,1.1 -0.9,2.1 -1.7,2.9 -0.8,0.8 -1.8,1.5 -3,1.9 -1.2,0.5 -2.5,0.7 -4,0.7 z"
         class="cls-1" />
      <path
         style="fill:#ef7f00;stroke-width:0px"
         inkscape:connector-curvature="0"
         id="path890"
         d="m 130,47.9 c -1.8,0 -3.4,-0.5 -4.8,-1.4 -1.4,-0.9 -2.5,-2.2 -3.3,-3.9 -0.8,-1.7 -1.2,-3.7 -1.2,-6 0,-2.3 0.4,-4.3 1.2,-6 0.8,-1.7 1.9,-3 3.3,-3.9 1.4,-0.9 3,-1.4 4.9,-1.4 1.9,0 2.5,0.2 3.4,0.7 0.9,0.5 1.5,1 1.9,1.6 0.4,0.6 0.8,1.1 1,1.5 h 0.3 V 18.4 h 3.4 v 29.1 h -3.2 v -3.4 h -0.4 c -0.2,0.4 -0.6,0.9 -1.1,1.5 -0.5,0.6 -1.1,1.1 -1.9,1.6 -0.8,0.5 -2,0.7 -3.4,0.7 z m 0.4,-3 c 1.3,0 2.5,-0.4 3.4,-1.1 0.9,-0.7 1.6,-1.7 2.1,-2.9 0.5,-1.2 0.7,-2.7 0.7,-4.4 0,-1.7 -0.2,-3.1 -0.7,-4.3 -0.5,-1.2 -1.2,-2.2 -2.1,-2.9 -0.9,-0.7 -2.1,-1 -3.4,-1 -1.3,0 -2.6,0.4 -3.5,1.1 -0.9,0.7 -1.6,1.7 -2.1,2.9 -0.5,1.2 -0.7,2.6 -0.7,4.2 0,1.6 0.2,3 0.7,4.2 0.5,1.3 1.2,2.3 2.1,3 0.9,0.7 2.1,1.1 3.5,1.1 z"
         class="cls-1" />
    </g>
    <g
       style="isolation:isolate"
       id="g920"
       class="cls-4">
      <path
         style="fill:#495353;stroke-width:0px"
         inkscape:connector-curvature="0"
         id="path894"
         d="m 149,47.6 c -0.7,0 -1.3,-0.3 -1.8,-0.8 -0.5,-0.5 -0.8,-1.1 -0.8,-1.8 0,-0.7 0.3,-1.3 0.8,-1.8 0.5,-0.5 1.1,-0.8 1.8,-0.8 0.7,0 1.3,0.3 1.8,0.8 0.5,0.5 0.8,1.1 0.8,1.8 0,0.7 -0.1,0.9 -0.3,1.3 -0.2,0.4 -0.5,0.7 -0.9,0.9 -0.4,0.2 -0.8,0.3 -1.3,0.3 z"
         class="cls-3" />
      <path
         style="fill:#495353;stroke-width:0px"
         inkscape:connector-curvature="0"
         id="path896"
         d="m 157.6,55.6 v -30 h 3.2 v 3.5 h 0.4 c 0.2,-0.4 0.6,-0.9 1,-1.5 0.4,-0.6 1.1,-1.1 1.9,-1.6 0.8,-0.5 2,-0.7 3.4,-0.7 1.4,0 3.5,0.5 4.9,1.4 1.4,0.9 2.5,2.2 3.3,3.9 0.8,1.7 1.2,3.7 1.2,6 0,2.3 -0.4,4.3 -1.2,6 -0.8,1.7 -1.9,3 -3.3,3.9 -1.4,0.9 -3,1.4 -4.8,1.4 -1.8,0 -2.5,-0.2 -3.4,-0.7 -0.9,-0.5 -1.5,-1 -1.9,-1.6 -0.4,-0.6 -0.8,-1.1 -1.1,-1.5 h -0.3 v 11.5 h -3.4 z m 3.3,-19.1 c 0,1.6 0.2,3.1 0.7,4.4 0.5,1.3 1.2,2.2 2.1,2.9 0.9,0.7 2.1,1.1 3.4,1.1 1.3,0 2.6,-0.4 3.5,-1.1 0.9,-0.7 1.7,-1.7 2.1,-3 0.5,-1.3 0.7,-2.7 0.7,-4.2 0,-1.5 -0.2,-2.9 -0.7,-4.2 -0.5,-1.2 -1.2,-2.2 -2.1,-2.9 -0.9,-0.7 -2.1,-1.1 -3.5,-1.1 -1.4,0 -2.5,0.3 -3.4,1 -0.9,0.7 -1.6,1.6 -2.1,2.9 -0.5,1.3 -0.7,2.7 -0.7,4.3 z"
         class="cls-3" />
      <path
         style="fill:#495353;stroke-width:0px"
         inkscape:connector-curvature="0"
         id="path898"
         d="m 191.1,47.9 c -2.1,0 -3.9,-0.5 -5.4,-1.4 -1.5,-0.9 -2.7,-2.2 -3.5,-3.9 -0.8,-1.7 -1.2,-3.6 -1.2,-5.9 0,-2.3 0.4,-4.2 1.2,-5.9 0.8,-1.7 2,-3 3.4,-4 1.5,-1 3.2,-1.4 5.2,-1.4 2,0 2.3,0.2 3.4,0.6 1.1,0.4 2.1,1 3,1.8 0.9,0.8 1.6,2 2.2,3.4 0.5,1.4 0.8,3.1 0.8,5.1 v 1.4 h -16.8 v -2.9 h 13.4 c 0,-1.2 -0.2,-2.3 -0.7,-3.3 -0.5,-1 -1.2,-1.7 -2.1,-2.3 -0.9,-0.6 -1.9,-0.8 -3.2,-0.8 -1.3,0 -2.5,0.3 -3.5,1 -1,0.7 -1.7,1.5 -2.2,2.6 -0.5,1.1 -0.8,2.2 -0.8,3.4 v 1.9 c 0,1.6 0.3,3 0.9,4.2 0.6,1.1 1.4,2 2.4,2.6 1,0.6 2.2,0.9 3.6,0.9 1.4,0 1.7,-0.1 2.4,-0.4 0.7,-0.2 1.3,-0.6 1.9,-1.1 0.5,-0.5 0.9,-1.1 1.2,-1.9 l 3.2,0.9 c -0.3,1.1 -0.9,2.1 -1.7,2.9 -0.8,0.8 -1.8,1.5 -3,1.9 -1.2,0.5 -2.5,0.7 -4,0.7 z"
         class="cls-3" />
      <path
         style="fill:#495353;stroke-width:0px"
         inkscape:connector-curvature="0"
         id="path900"
         d="M 205.3,47.4 V 25.6 h 3.2 v 3.3 h 0.2 c 0.4,-1.1 1.1,-2 2.2,-2.6 1,-0.7 2.2,-1 3.5,-1 1.3,0 0.6,0 0.9,0 0.4,0 0.6,0 0.8,0 v 3.4 c -0.1,0 -0.4,0 -0.8,-0.1 -0.4,0 -0.8,0 -1.3,0 -1.1,0 -2,0.2 -2.8,0.7 -0.8,0.4 -1.5,1 -2,1.8 -0.5,0.8 -0.7,1.6 -0.7,2.6 v 13.8 h -3.4 z"
         class="cls-3" />
      <path
         style="fill:#495353;stroke-width:0px"
         inkscape:connector-curvature="0"
         id="path902"
         d="m 235.6,30.5 -3,0.9 c -0.2,-0.5 -0.5,-1 -0.8,-1.5 -0.4,-0.5 -0.9,-0.9 -1.5,-1.2 -0.6,-0.3 -1.4,-0.5 -2.4,-0.5 -1,0 -2.4,0.3 -3.3,0.9 -0.9,0.6 -1.3,1.4 -1.3,2.3 0,0.9 0.3,1.5 0.9,2 0.6,0.5 1.6,0.9 2.8,1.2 l 3.2,0.8 c 2,0.5 3.4,1.2 4.4,2.2 1,1 1.4,2.2 1.4,3.7 0,1.5 -0.4,2.4 -1.1,3.4 -0.7,1 -1.7,1.8 -3,2.3 -1.3,0.5 -2.8,0.9 -4.5,0.9 -1.7,0 -4.1,-0.5 -5.5,-1.4 -1.4,-0.9 -2.4,-2.4 -2.8,-4.2 l 3.2,-0.8 c 0.3,1.2 0.9,2.1 1.7,2.6 0.8,0.6 2,0.9 3.3,0.9 1.3,0 2.8,-0.3 3.7,-1 0.9,-0.7 1.4,-1.5 1.4,-2.4 0,-0.9 -0.3,-1.4 -0.8,-1.9 -0.5,-0.5 -1.3,-0.9 -2.4,-1.2 l -3.6,-0.9 c -2,-0.5 -3.5,-1.2 -4.4,-2.2 -0.9,-1 -1.4,-2.3 -1.4,-3.8 0,-1.5 0.3,-2.3 1,-3.3 0.7,-1 1.6,-1.7 2.9,-2.2 1.2,-0.5 2.6,-0.8 4.1,-0.8 1.5,0 3.9,0.5 5.1,1.4 1.2,0.9 2.1,2.2 2.6,3.8 z"
         class="cls-3" />
      <path
         style="fill:#495353;stroke-width:0px"
         inkscape:connector-curvature="0"
         id="path904"
         d="m 241.1,55.6 v -30 h 3.2 v 3.5 h 0.4 c 0.2,-0.4 0.6,-0.9 1,-1.5 0.4,-0.6 1.1,-1.1 1.9,-1.6 0.8,-0.5 2,-0.7 3.4,-0.7 1.4,0 3.5,0.5 4.9,1.4 1.4,0.9 2.5,2.2 3.3,3.9 0.8,1.7 1.2,3.7 1.2,6 0,2.3 -0.4,4.3 -1.2,6 -0.8,1.7 -1.9,3 -3.3,3.9 -1.4,0.9 -3,1.4 -4.8,1.4 -1.8,0 -2.5,-0.2 -3.4,-0.7 -0.9,-0.5 -1.5,-1 -1.9,-1.6 -0.5,-0.6 -0.8,-1.1 -1.1,-1.5 h -0.3 V 55.6 H 241 Z m 3.3,-19.1 c 0,1.6 0.2,3.1 0.7,4.4 0.5,1.3 1.2,2.2 2.1,2.9 0.9,0.7 2.1,1.1 3.4,1.1 1.3,0 2.6,-0.4 3.5,-1.1 0.9,-0.7 1.7,-1.7 2.1,-3 0.5,-1.3 0.7,-2.7 0.7,-4.2 0,-1.5 -0.2,-2.9 -0.7,-4.2 -0.5,-1.2 -1.2,-2.2 -2.1,-2.9 -0.9,-0.7 -2.1,-1.1 -3.5,-1.1 -1.4,0 -2.5,0.3 -3.4,1 -0.9,0.7 -1.6,1.6 -2.1,2.9 -0.5,1.3 -0.7,2.7 -0.7,4.3 z"
         class="cls-3" />
      <path
         style="fill:#495353;stroke-width:0px"
         inkscape:connector-curvature="0"
         id="path906"
         d="m 274.6,47.9 c -2.1,0 -3.9,-0.5 -5.4,-1.4 -1.5,-0.9 -2.7,-2.2 -3.5,-3.9 -0.8,-1.7 -1.2,-3.6 -1.2,-5.9 0,-2.3 0.4,-4.2 1.2,-5.9 0.8,-1.7 2,-3 3.4,-4 1.4,-1 3.2,-1.4 5.2,-1.4 2,0 2.3,0.2 3.4,0.6 1.1,0.4 2.1,1 3,1.8 0.9,0.8 1.6,2 2.2,3.4 0.5,1.4 0.8,3.1 0.8,5.1 v 1.4 h -16.8 v -2.9 h 13.4 c 0,-1.2 -0.2,-2.3 -0.7,-3.3 -0.5,-1 -1.2,-1.7 -2.1,-2.3 -0.9,-0.6 -1.9,-0.8 -3.2,-0.8 -1.3,0 -2.5,0.3 -3.5,1 -1,0.7 -1.7,1.5 -2.2,2.6 -0.5,1.1 -0.8,2.2 -0.8,3.4 v 1.9 c 0,1.6 0.3,3 0.9,4.2 0.6,1.1 1.4,2 2.4,2.6 1,0.6 2.2,0.9 3.6,0.9 1.4,0 1.7,-0.1 2.4,-0.4 0.7,-0.2 1.3,-0.6 1.9,-1.1 0.5,-0.5 0.9,-1.1 1.2,-1.9 l 3.2,0.9 c -0.3,1.1 -0.9,2.1 -1.7,2.9 -0.8,0.8 -1.8,1.5 -3,1.9 -1.2,0.5 -2.5,0.7 -4,0.7 z"
         class="cls-3" />
      <path
         style="fill:#495353;stroke-width:0px"
         inkscape:connector-curvature="0"
         id="path908"
         d="m 297.6,47.9 c -2,0 -3.8,-0.5 -5.3,-1.4 -1.5,-0.9 -2.6,-2.3 -3.4,-4 -0.8,-1.7 -1.2,-3.6 -1.2,-5.8 0,-2.2 0.4,-4.2 1.2,-5.9 0.8,-1.7 2,-3 3.4,-4 1.5,-1 3.2,-1.4 5.2,-1.4 2,0 2.9,0.3 4.1,0.9 1.2,0.6 2.2,1.4 3,2.4 0.8,1 1.3,2.2 1.5,3.6 h -3.4 c -0.3,-1 -0.8,-1.9 -1.7,-2.6 -0.9,-0.8 -2.1,-1.2 -3.5,-1.2 -1.4,0 -2.5,0.3 -3.4,1 -1,0.7 -1.7,1.6 -2.3,2.9 -0.5,1.2 -0.8,2.7 -0.8,4.3 0,1.6 0.3,3.2 0.8,4.4 0.5,1.2 1.3,2.2 2.3,2.9 1,0.7 2.1,1 3.5,1 1.4,0 1.7,-0.2 2.4,-0.5 0.7,-0.3 1.3,-0.7 1.8,-1.3 0.5,-0.6 0.8,-1.2 1.1,-2 h 3.4 c -0.2,1.3 -0.7,2.4 -1.4,3.5 -0.7,1 -1.7,1.8 -2.9,2.4 -1.2,0.6 -2.6,0.9 -4.2,0.9 z"
         class="cls-3" />
      <path
         style="fill:#495353;stroke-width:0px"
         inkscape:connector-curvature="0"
         id="path910"
         d="m 320.5,25.6 v 2.8 h -11.3 v -2.8 z m -8,-5.2 h 3.4 v 20.8 c 0,0.9 0.1,1.7 0.4,2.1 0.3,0.4 0.6,0.8 1.1,0.9 0.4,0.2 0.9,0.2 1.4,0.2 0.5,0 0.7,0 0.9,0 0.2,0 0.4,0 0.6,-0.1 l 0.7,3 c -0.2,0 -0.5,0.2 -1,0.3 -0.4,0 -0.9,0.1 -1.5,0.1 -0.9,0 -1.9,-0.2 -2.8,-0.6 -0.9,-0.4 -1.7,-1 -2.2,-1.9 -0.5,-0.9 -0.9,-1.9 -0.9,-3.2 V 20.3 Z"
         class="cls-3" />
      <path
         style="fill:#495353;stroke-width:0px"
         inkscape:connector-curvature="0"
         id="path912"
         d="m 327.3,22 c -0.7,0 -1.2,-0.2 -1.7,-0.7 -0.5,-0.5 -0.7,-1 -0.7,-1.6 0,-0.6 0.2,-1.2 0.7,-1.6 0.5,-0.4 1,-0.7 1.7,-0.7 0.7,0 1.2,0.2 1.7,0.7 0.5,0.5 0.7,1 0.7,1.6 0,0.6 -0.2,1.2 -0.7,1.6 -0.5,0.4 -1,0.7 -1.7,0.7 z m -1.7,25.4 V 25.6 h 3.4 v 21.8 z"
         class="cls-3" />
      <path
         style="fill:#495353;stroke-width:0px"
         inkscape:connector-curvature="0"
         id="path914"
         d="m 352.9,25.6 -8.1,21.8 h -3.4 l -8.1,-21.8 h 3.6 l 6,17.4 h 0.2 l 6,-17.4 h 3.6 z"
         class="cls-3" />
      <path
         style="fill:#495353;stroke-width:0px"
         inkscape:connector-curvature="0"
         id="path916"
         d="m 359.1,22 c -0.7,0 -1.2,-0.2 -1.7,-0.7 -0.5,-0.5 -0.7,-1 -0.7,-1.6 0,-0.6 0.2,-1.2 0.7,-1.6 0.5,-0.4 1,-0.7 1.7,-0.7 0.7,0 1.2,0.2 1.7,0.7 0.5,0.5 0.7,1 0.7,1.6 0,0.6 -0.2,1.2 -0.7,1.6 -0.5,0.4 -1,0.7 -1.7,0.7 z m -1.7,25.4 V 25.6 h 3.4 v 21.8 z"
         class="cls-3" />
      <path
         style="fill:#495353;stroke-width:0px"
         inkscape:connector-curvature="0"
         id="path918"
         d="m 373.3,47.9 c -1.4,0 -2.6,-0.3 -3.8,-0.8 -1.1,-0.5 -2,-1.3 -2.7,-2.3 -0.7,-1 -1,-2.2 -1,-3.6 0,-1.4 0.2,-2.3 0.7,-3 0.5,-0.7 1.2,-1.4 2,-1.8 0.8,-0.4 1.7,-0.8 2.7,-1 1,-0.2 2,-0.4 3,-0.5 1.3,-0.2 2.4,-0.3 3.2,-0.4 0.8,0 1.4,-0.2 1.8,-0.5 0.4,-0.3 0.6,-0.6 0.6,-1.1 v 0 c 0,-1.5 -0.4,-2.6 -1.1,-3.4 -0.8,-0.8 -1.9,-1.2 -3.5,-1.2 -1.6,0 -2.9,0.4 -3.8,1.1 -0.9,0.7 -1.5,1.4 -1.9,2.2 l -3.2,-1.1 c 0.6,-1.3 1.3,-2.4 2.3,-3.1 1,-0.7 2,-1.3 3.1,-1.6 1.1,-0.3 2.2,-0.4 3.3,-0.4 1.1,0 1.5,0 2.4,0.2 0.9,0.2 1.8,0.5 2.7,1 0.9,0.5 1.6,1.3 2.1,2.3 0.5,1 0.9,2.4 0.9,4.1 v 14.4 h -3.4 v -3 h -0.2 c -0.2,0.5 -0.6,1 -1.1,1.5 -0.5,0.5 -1.2,1 -2.1,1.4 -0.9,0.4 -2,0.6 -3.2,0.6 z m 0.5,-3 c 1.3,0 2.4,-0.3 3.4,-0.8 1,-0.5 1.6,-1.2 2.1,-2 0.5,-0.8 0.7,-1.7 0.7,-2.6 v -3.1 c -0.1,0.2 -0.5,0.3 -0.9,0.5 -0.5,0.1 -1,0.3 -1.6,0.4 -0.6,0.1 -1.2,0.2 -1.8,0.3 -0.6,0 -1.1,0.1 -1.4,0.2 -0.9,0.1 -1.7,0.3 -2.4,0.5 -0.7,0.2 -1.4,0.6 -1.8,1.1 -0.4,0.5 -0.7,1.2 -0.7,2 0,0.8 0.4,2 1.3,2.6 0.9,0.6 2,0.9 3.3,0.9 z"
         class="cls-3" />
    </g>
    <g
       style="isolation:isolate"
       id="g930"
       class="cls-4">
      <path
         style="fill:#ef7f00;stroke-width:0px"
         inkscape:connector-curvature="0"
         id="path922"
         d="m 391.8,47.6 c -0.7,0 -1.3,-0.3 -1.8,-0.8 -0.5,-0.5 -0.8,-1.1 -0.8,-1.8 0,-0.7 0.3,-1.3 0.8,-1.8 0.5,-0.5 1.1,-0.8 1.8,-0.8 0.7,0 1.3,0.3 1.8,0.8 0.5,0.5 0.8,1.1 0.8,1.8 0,0.7 -0.1,0.9 -0.3,1.3 -0.2,0.4 -0.5,0.7 -0.9,0.9 -0.4,0.2 -0.8,0.3 -1.3,0.3 z"
         class="cls-2" />
      <path
         style="fill:#ef7f00;stroke-width:0px"
         inkscape:connector-curvature="0"
         id="path924"
         d="m 403.8,34.3 v 13.1 h -3.4 V 25.6 h 3.2 V 29 h 0.3 c 0.5,-1.1 1.3,-2 2.3,-2.7 1,-0.7 2.4,-1 4,-1 1.6,0 2.8,0.3 3.9,0.9 1.1,0.6 2,1.5 2.6,2.7 0.6,1.2 0.9,2.8 0.9,4.6 v 13.9 h -3.4 V 33.8 c 0,-1.7 -0.4,-3.1 -1.3,-4 -0.9,-1 -2.1,-1.4 -3.7,-1.4 -1.6,0 -2,0.2 -2.9,0.7 -0.9,0.5 -1.5,1.1 -2,2 -0.5,0.9 -0.7,2 -0.7,3.2 z"
         class="cls-2" />
      <path
         style="fill:#ef7f00;stroke-width:0px"
         inkscape:connector-curvature="0"
         id="path926"
         d="m 433,47.9 c -2.1,0 -3.9,-0.5 -5.4,-1.4 -1.5,-0.9 -2.7,-2.2 -3.5,-3.9 -0.8,-1.7 -1.2,-3.6 -1.2,-5.9 0,-2.3 0.4,-4.2 1.2,-5.9 0.8,-1.7 2,-3 3.4,-4 1.4,-1 3.2,-1.4 5.2,-1.4 2,0 2.3,0.2 3.4,0.6 1.1,0.4 2.1,1 3,1.8 0.9,0.8 1.6,2 2.2,3.4 0.5,1.4 0.8,3.1 0.8,5.1 v 1.4 h -16.8 v -2.9 h 13.4 c 0,-1.2 -0.2,-2.3 -0.7,-3.3 -0.5,-1 -1.2,-1.7 -2.1,-2.3 -0.9,-0.6 -1.9,-0.8 -3.2,-0.8 -1.3,0 -2.5,0.3 -3.5,1 -1,0.7 -1.7,1.5 -2.2,2.6 -0.5,1.1 -0.8,2.2 -0.8,3.4 v 1.9 c 0,1.6 0.3,3 0.9,4.2 0.6,1.1 1.4,2 2.4,2.6 1,0.6 2.2,0.9 3.6,0.9 1.4,0 1.7,-0.1 2.4,-0.4 0.7,-0.2 1.3,-0.6 1.9,-1.1 0.5,-0.5 0.9,-1.1 1.2,-1.9 l 3.2,0.9 c -0.3,1.1 -0.9,2.1 -1.7,2.9 -0.8,0.8 -1.8,1.5 -3,1.9 -1.2,0.5 -2.5,0.7 -4,0.7 z"
         class="cls-2" />
      <path
         style="fill:#ef7f00;stroke-width:0px"
         inkscape:connector-curvature="0"
         id="path928"
         d="m 456.6,25.6 v 2.8 h -11.3 v -2.8 z m -8,-5.2 h 3.4 v 20.8 c 0,0.9 0.1,1.7 0.4,2.1 0.3,0.4 0.6,0.8 1.1,0.9 0.4,0.2 0.9,0.2 1.4,0.2 0.5,0 0.7,0 0.9,0 0.2,0 0.4,0 0.6,-0.1 l 0.7,3 c -0.2,0 -0.5,0.2 -1,0.3 -0.4,0 -0.9,0.1 -1.5,0.1 -0.9,0 -1.9,-0.2 -2.8,-0.6 -0.9,-0.4 -1.7,-1 -2.2,-1.9 -0.5,-0.9 -0.9,-1.9 -0.9,-3.2 V 20.3 Z"
         class="cls-2" />
    </g>
  </g>
</svg>
